<svg width="16" height="20" viewBox="0 0 16 20" fill="none" xmlns="http://www.w3.org/2000/svg">
<path d="M11 0.000976562H5C2.243 0.000976562 0 2.24398 0 5.00098V17.999C0 18.745 0.410991 19.424 1.07199 19.77C1.73199 20.116 2.52501 20.0669 3.13901 19.6429L7.99799 16.276L12.862 19.6429C13.204 19.8789 13.601 19.999 14 19.999C14.317 19.999 14.636 19.923 14.929 19.77C15.59 19.423 16 18.745 16 17.999V5.00098C16 2.24398 13.757 0.000976562 11 0.000976562ZM14 17.999L9.13699 14.632C8.79599 14.397 8.39699 14.278 7.99799 14.278C7.59899 14.278 7.20001 14.396 6.85901 14.632L2 17.999V5.00098C2 3.34698 3.346 2.00098 5 2.00098H11C12.654 2.00098 14 3.34698 14 5.00098V17.999Z" fill="white"/>
</svg>
