<svg width="20" height="21" viewBox="0 0 20 21" fill="none" xmlns="http://www.w3.org/2000/svg">
<path d="M19.7069 19.1953L15.1679 14.6608C16.3109 13.2143 16.9999 11.3931 16.9999 9.41202C16.9999 4.72968 13.1869 0.920471 8.49988 0.920471C3.81288 0.920471 -0.00012207 4.72968 -0.00012207 9.41202C-0.00012207 14.0944 3.81288 17.9036 8.49988 17.9036C10.4839 17.9036 12.3059 17.2162 13.7539 16.0734L18.2929 20.6079C18.4879 20.8027 18.7439 20.9006 18.9999 20.9006C19.2559 20.9006 19.5119 20.8027 19.7069 20.6079C20.0979 20.2173 20.0979 19.5859 19.7069 19.1953ZM1.99988 9.41202C1.99988 5.83158 4.91588 2.91848 8.49988 2.91848C12.0839 2.91848 14.9999 5.83158 14.9999 9.41202C14.9999 12.9925 12.0839 15.9056 8.49988 15.9056C4.91588 15.9056 1.99988 12.9925 1.99988 9.41202Z" fill="white"/>
</svg>
