<svg width="164" height="20" viewBox="0 0 164 20" fill="none" xmlns="http://www.w3.org/2000/svg">
<path d="M14.8148 12.2633H3.8683V9.54729H17.9835C17.6131 8.39503 16.4197 7.32507 14.3209 7.32507H4.07406C1.72839 7.32507 0.370369 8.18927 0.370369 10.0823V12.0987C0.370369 13.7448 1.76954 14.6913 3.82715 14.6913H14.8971V17.5719H0C0.370369 19.1357 1.56378 19.9588 3.70369 19.9588H14.8559C17.2016 19.9588 18.3538 19.0534 18.3538 17.1193V15.1028C18.3538 13.3333 16.9958 12.3868 14.8148 12.2633Z" fill="white"/>
<path d="M37.1604 7.36621H23.6625V19.9999H27.4896V15.144H37.4484C40.2056 15.144 41.7283 14.1975 41.7283 11.9752V10.5761C41.6871 8.51847 39.9587 7.36621 37.1604 7.36621ZM38.3949 11.3991C38.3949 12.3045 38.2303 12.7983 36.7488 12.7983H27.4896L27.5308 9.50612H36.5842C38.2303 9.50612 38.4361 9.99995 38.4361 10.8641V11.3991H38.3949Z" fill="white"/>
<path d="M52.8395 6.83133L50.535 9.67083L54.4445 15.0618H46.2964L44.2799 17.2017H56.0494L58.0659 20H62.5926L52.8395 6.83133Z" fill="white"/>
<path d="M69.9176 9.54729H84.2385C83.8681 8.06581 82.4278 7.32507 80.3702 7.32507H69.6706C67.8188 7.32507 66.0493 8.06581 66.0493 10.0823V17.1604C66.0493 19.1769 67.8188 19.9176 69.6706 19.9176H80.4936C82.9628 19.9176 83.827 19.218 84.2385 17.5308H69.9176V9.54729Z" fill="white"/>
<path d="M93.3331 17.6132V13.7449H101.029V11.6049H89.4648V20H106.543V17.6132H93.3331Z" fill="white"/>
<path d="M107.119 7.36621H89.8763V9.58842H107.119V7.36621Z" fill="white"/>
<path d="M117.736 7.36621H111.728L118.806 12.5514C119.835 11.8518 121.028 11.1111 122.098 10.4938L117.736 7.36621Z" fill="white"/>
<path d="M126.46 13.827C125.432 14.5266 124.403 15.3085 123.415 16.0492L128.765 19.9587H134.814L126.46 13.827Z" fill="white"/>
<path d="M163.58 0C130.658 1.893 115.432 15.967 112.016 19.3003L111.316 19.9588H117.407C133.868 3.45678 157.53 0.534977 163.58 0Z" fill="white"/>
</svg>
